<svg id="Layer_1" data-name="Layer 1" xmlns="http://www.w3.org/2000/svg" viewBox="0 0 266 130"><defs><style>.cls-1{fill:#6b7280;}</style></defs><circle cx="35.77" cy="73.56" r="4.98"/><circle cx="62.15" cy="73.56" r="4.98"/><path d="M92.43,44.67l-6.55-2.29L58.54,5.8a12,12,0,0,0-19.16,0L18.1,34.28c11-1.37,17.67-.21,17.67-.21h0L5.49,44.67A4,4,0,0,0,3,49.75l5.27,15a4,4,0,0,0,5.08,2.44L49,54.79,84.53,67.24a4,4,0,0,0,5.08-2.44l5.27-15A4,4,0,0,0,92.43,44.67Z"/><path class="cls-1" d="M87.33,81.55l-2.5-1.34V72.57l-8-3.95v8.16l-8.2,9.32c-2.3.16-5.56-1-10.12-2.75C54.29,81.76,50.92,84.62,49,86c-2-1.39-5.33-4.25-9.58-2.66-4.56,1.7-7.82,2.91-10.12,2.75l-8.2-9.32V68.62l-8,3.95v7.64l-2.5,1.34a4,4,0,0,0-1.34,4l0,.08C9.64,87.12,13.58,129,49,129c33.87,0,39.32-41.88,39.69-43.33l0-.08A4,4,0,0,0,87.33,81.55ZM49.3,102c-5.35,0-9.11-4-9.11-4h0c4.67,0,7.29-2.2,8.77-4.57,1.48,2.37,4.1,4.57,8.77,4.57l.65,0,0,0A13.74,13.74,0,0,1,49.3,102Z"/><path d="M156.24,42.63a20,20,0,0,0-1.35-7.73,13.38,13.38,0,0,0-3.84-5.28,15.88,15.88,0,0,0-6-3,29.18,29.18,0,0,0-7.76-1c-1.34,0-2.95.06-4.82.17a43.81,43.81,0,0,0-5.4.65v32.4a38.51,38.51,0,0,0,5.28.69c1.79.11,3.36.17,4.7.17a27.71,27.71,0,0,0,8-1.06,16.35,16.35,0,0,0,6-3.16,14,14,0,0,0,3.81-5.33A19.41,19.41,0,0,0,156.24,42.63ZM145.8,50.46c-1.81,1.88-4.59,2.83-8.33,2.83-.64,0-1.19,0-1.66,0s-.87,0-1.22-.07v-21a12.17,12.17,0,0,1,1.53-.12l1.59,0q5.61,0,8.21,2.69c1.72,1.79,2.59,4.43,2.59,7.92A10.9,10.9,0,0,1,145.8,50.46Z"/><path d="M189.31,54.49q1-2.79,2.12-6.07t2.22-7q1.13-3.68,2.19-7.42H188.4c-.26,1.15-.54,2.41-.85,3.77s-.63,2.76-1,4.2-.7,2.89-1.09,4.34-.77,2.86-1.16,4.2q-.63-2.11-1.2-4.32c-.38-1.47-.75-2.92-1.1-4.34s-.69-2.8-1-4.13-.61-2.57-.87-3.72H175c-.26,1.15-.55,2.39-.89,3.72s-.69,2.7-1.05,4.13-.76,2.87-1.16,4.34-.8,2.91-1.22,4.32c-.39-1.34-.76-2.74-1.13-4.2s-.73-2.9-1.07-4.34-.66-2.84-1-4.2-.59-2.62-.85-3.77h-7.53q1,3.75,2.19,7.42t2.21,7q1.08,3.28,2.1,6.07t1.87,4.8h5.57q1.2-3.65,2.28-7.25t2-7.25q1,3.65,2.11,7.25t2.35,7.25h5.57Q188.28,57.27,189.31,54.49Z"/><path d="M208.32,59.82a41.39,41.39,0,0,0,6.62-.46c1.82-.3,3.25-.57,4.27-.79V43.69a15.75,15.75,0,0,0-.53-4.27,7.59,7.59,0,0,0-1.8-3.27,8.18,8.18,0,0,0-3.38-2.06,16.58,16.58,0,0,0-5.28-.72c-.83,0-1.66,0-2.47.12s-1.59.17-2.33.29-1.42.24-2,.38-1.14.28-1.56.41l.91,5.76a15.86,15.86,0,0,1,3.07-.75,25.43,25.43,0,0,1,3.6-.26c1.83,0,3.11.37,3.84,1.1a4,4,0,0,1,1.11,2.93V44a12,12,0,0,0-1.75-.31,22.75,22.75,0,0,0-2.48-.12,19.26,19.26,0,0,0-4,.41,10.64,10.64,0,0,0-3.41,1.32,6.79,6.79,0,0,0-2.37,2.45,7.27,7.27,0,0,0-.89,3.74,8.76,8.76,0,0,0,.77,3.89,6.45,6.45,0,0,0,2.2,2.57,9.62,9.62,0,0,0,3.44,1.41A20.74,20.74,0,0,0,208.32,59.82ZM205,49.88a2.6,2.6,0,0,1,1-.91,4.83,4.83,0,0,1,1.56-.46,14.24,14.24,0,0,1,1.9-.12,13,13,0,0,1,1.58.1c.58.06,1,.13,1.3.19V54.1a12.3,12.3,0,0,1-1.54.15c-.64,0-1.31,0-2,0a6.24,6.24,0,0,1-3.1-.65,2.46,2.46,0,0,1-1.13-2.33A2.49,2.49,0,0,1,205,49.88Z"/><path d="M239.08,33.78c-.54-.08-1.08-.15-1.63-.2s-1-.07-1.39-.07a26.12,26.12,0,0,0-5.83.6,44.67,44.67,0,0,0-4.54,1.27V59.29h7.15V40a10.64,10.64,0,0,1,1.42-.26,12.87,12.87,0,0,1,1.61-.12,14.35,14.35,0,0,1,2.78.26c.87.18,1.62.35,2.26.51l1.2-5.91a8.64,8.64,0,0,0-1.39-.41C240.17,34,239.63,33.86,239.08,33.78Z"/><path d="M253.1,40h8.83V34H253.1V32.79a7.43,7.43,0,0,1,.22-1.87,3.7,3.7,0,0,1,.72-1.49,3.38,3.38,0,0,1,1.39-1,5.81,5.81,0,0,1,2.18-.36,11.46,11.46,0,0,1,2.09.21,9.63,9.63,0,0,1,2.09.65l1.39-5.71a17.26,17.26,0,0,0-2.59-.79,15.76,15.76,0,0,0-3.7-.41q-5.41,0-8.18,2.88A10.77,10.77,0,0,0,246,32.7V59.29h7.15Z"/><polygon class="cls-1" points="127.1 107.29 134.59 107.29 134.59 93.56 147.74 93.56 147.74 87.27 134.59 87.27 134.59 80.31 149.37 80.31 149.37 74.02 127.1 74.02 127.1 107.29"/><path class="cls-1" d="M173.85,85a11.3,11.3,0,0,0-3.91-2.69,12.8,12.8,0,0,0-5-1,12.64,12.64,0,0,0-5,1A11.51,11.51,0,0,0,156,85a12.27,12.27,0,0,0-2.59,4.17,15,15,0,0,0-.94,5.43,15.76,15.76,0,0,0,.91,5.44,12.46,12.46,0,0,0,2.55,4.23,11.21,11.21,0,0,0,3.91,2.71,12.93,12.93,0,0,0,5.06,1,13.09,13.09,0,0,0,5.12-1,11.21,11.21,0,0,0,3.91-2.71,11.74,11.74,0,0,0,2.49-4.23,16.25,16.25,0,0,0,.87-5.44,15.62,15.62,0,0,0-.91-5.43A12.18,12.18,0,0,0,173.85,85Zm-5.16,14.85a4.27,4.27,0,0,1-3.77,1.95,4.34,4.34,0,0,1-3.79-1.95,9.13,9.13,0,0,1-1.34-5.25,8.91,8.91,0,0,1,1.34-5.21,4.37,4.37,0,0,1,3.79-1.9,4.3,4.3,0,0,1,3.77,1.9A9,9,0,0,1,170,94.62,9.21,9.21,0,0,1,168.69,99.87Z"/><path class="cls-1" d="M196.22,81.78c-.54-.08-1.09-.15-1.63-.2s-1-.07-1.39-.07a26.21,26.21,0,0,0-5.84.6,45.17,45.17,0,0,0-4.53,1.27v23.91H190V88a10.33,10.33,0,0,1,1.42-.26,12.86,12.86,0,0,1,1.6-.12,14.45,14.45,0,0,1,2.79.26q1.29.27,2.25.51l1.2-5.91a8.06,8.06,0,0,0-1.39-.41C197.31,82,196.76,81.86,196.22,81.78Z"/><path class="cls-1" d="M236,84.68a7.5,7.5,0,0,0-3.09-2.38,12.62,12.62,0,0,0-5-.84,12.25,12.25,0,0,0-3.67.63,12,12,0,0,0-3.53,1.73,9.94,9.94,0,0,0-2.81-1.66,11.93,11.93,0,0,0-4.44-.7c-.93,0-1.87,0-2.83.12s-1.9.2-2.81.34-1.77.3-2.59.48-1.53.34-2.14.5v24.39h7.16V87.8l1.39-.17a13.34,13.34,0,0,1,1.39-.07,3.29,3.29,0,0,1,3,1.44,9.88,9.88,0,0,1,.89,4.9v13.39h7.15V93.51c0-.93,0-1.8-.1-2.61a10.8,10.8,0,0,0-.43-2.33,6.25,6.25,0,0,1,1.7-.72,6.62,6.62,0,0,1,1.61-.29A3.29,3.29,0,0,1,229.94,89a9.88,9.88,0,0,1,.89,4.9v13.39H238V93a23.36,23.36,0,0,0-.43-4.7A9,9,0,0,0,236,84.68Z"/><path class="cls-1" d="M260.8,95.44a9.07,9.07,0,0,0-2.42-1.83,28.09,28.09,0,0,0-3.89-1.72c-.77-.29-1.4-.56-1.89-.8a8.81,8.81,0,0,1-1.18-.67,1.71,1.71,0,0,1-.58-.65,2.07,2.07,0,0,1-.14-.77c0-1.25,1.12-1.87,3.36-1.87a15,15,0,0,1,3.29.33,27.56,27.56,0,0,1,2.71.77l1.25-5.57a20.34,20.34,0,0,0-3.36-.88,22.63,22.63,0,0,0-4.42-.41,11.53,11.53,0,0,0-7.25,2.06,6.76,6.76,0,0,0-2.64,5.62,8.34,8.34,0,0,0,.53,3.12,6.47,6.47,0,0,0,1.49,2.23A9.16,9.16,0,0,0,248,96a30.78,30.78,0,0,0,3,1.29,20.43,20.43,0,0,1,3.21,1.47,1.81,1.81,0,0,1,1.06,1.51,1.48,1.48,0,0,1-.82,1.49,7.24,7.24,0,0,1-2.78.38,17.65,17.65,0,0,1-3.79-.41,23.42,23.42,0,0,1-3.75-1.12l-1.2,5.8a21.75,21.75,0,0,0,3.1,1,22.51,22.51,0,0,0,5.59.58q5.13,0,7.94-1.91a6.4,6.4,0,0,0,2.81-5.66,9.59,9.59,0,0,0-.36-2.77A5.51,5.51,0,0,0,260.8,95.44Z"/></svg>