<svg id="Layer_1" data-name="Layer 1" xmlns="http://www.w3.org/2000/svg" viewBox="0 0 290 196"><defs><style>.cls-1{fill:#6b7280;}</style></defs><circle cx="131.81" cy="75.6" r="4.98"/><circle cx="158.19" cy="75.6" r="4.98"/><path d="M188.47,46.71l-6.55-2.29L154.58,7.84a12,12,0,0,0-19.16,0L114.14,36.32c11-1.37,17.67-.21,17.67-.21h0l-30.28,10.6a4,4,0,0,0-2.45,5.08l5.27,15.05a4,4,0,0,0,5.08,2.44L145,56.83l35.57,12.45a4,4,0,0,0,5.08-2.44l5.27-15.05A4,4,0,0,0,188.47,46.71Z"/><path class="cls-1" d="M183.37,83.59l-2.5-1.34V74.61l-8-4v8.16l-8.2,9.32c-2.3.16-5.56-1-10.12-2.75-4.25-1.59-7.62,1.27-9.58,2.66-2-1.39-5.33-4.25-9.58-2.66-4.56,1.7-7.82,2.91-10.12,2.75l-8.2-9.32V70.66l-8,4v7.64l-2.5,1.34a4,4,0,0,0-1.34,4l0,.08C105.68,89.16,109.62,131,145,131c33.87,0,39.32-41.88,39.69-43.33l0-.08A4,4,0,0,0,183.37,83.59Zm-38,20.49c-5.35,0-9.11-4-9.11-4h0c4.67,0,7.29-2.2,8.77-4.57,1.48,2.37,4.1,4.57,8.77,4.57l.65,0,0,0S150.69,104.08,145.34,104.08Z"/><path class="cls-1" d="M30.93,175.63a19.41,19.41,0,0,1-1.35,7.54,13.91,13.91,0,0,1-3.81,5.33,16.35,16.35,0,0,1-6,3.16,27.64,27.64,0,0,1-8,1.06c-1.35,0-2.92-.06-4.71-.17a38.51,38.51,0,0,1-5.28-.69v-32.4a43.81,43.81,0,0,1,5.4-.65c1.87-.11,3.48-.17,4.83-.17a29.16,29.16,0,0,1,7.75,1,15.88,15.88,0,0,1,6,3,13.38,13.38,0,0,1,3.84,5.28A20,20,0,0,1,30.93,175.63ZM9.28,186.19c.35,0,.76.06,1.22.07s1,0,1.66,0c3.74,0,6.52-.95,8.33-2.83s2.71-4.5,2.71-7.83q0-5.24-2.59-7.92c-1.73-1.79-4.46-2.69-8.21-2.69l-1.58,0a12.19,12.19,0,0,0-1.54.12Z"/><path class="cls-1" d="M52.07,177.79q-1,3.65-2,7.25t-2.28,7.25H42.19q-.87-2-1.88-4.8c-.68-1.86-1.37-3.88-2.1-6.07s-1.46-4.52-2.21-7-1.49-4.92-2.19-7.42h7.54c.25,1.15.53,2.41.84,3.77s.63,2.76,1,4.2.69,2.89,1.06,4.34.75,2.86,1.13,4.2q.63-2.12,1.23-4.32c.4-1.47.78-2.92,1.15-4.34s.72-2.8,1.05-4.13.64-2.57.89-3.72h5.19c.25,1.15.54,2.39.86,3.72s.66,2.7,1,4.13.72,2.87,1.1,4.34.79,2.91,1.2,4.32c.39-1.34.78-2.74,1.16-4.2s.75-2.9,1.09-4.34.66-2.84,1-4.2.59-2.62.85-3.77h7.44q-1.07,3.75-2.19,7.42c-.76,2.44-1.49,4.76-2.22,7s-1.42,4.21-2.11,6.07-1.33,3.45-1.91,4.8H56.54c-.8-2.43-1.59-4.85-2.35-7.25S52.71,180.22,52.07,177.79Z"/><path class="cls-1" d="M82.91,166.37a16.58,16.58,0,0,1,5.28.72,8.28,8.28,0,0,1,3.39,2.06,7.8,7.8,0,0,1,1.8,3.27,16.17,16.17,0,0,1,.52,4.27v14.88c-1,.22-2.44.49-4.27.79a41.39,41.39,0,0,1-6.62.46,20.87,20.87,0,0,1-4.44-.44A9.57,9.57,0,0,1,75.14,191a6.47,6.47,0,0,1-2.21-2.57,8.9,8.9,0,0,1-.77-3.89,7.37,7.37,0,0,1,.89-3.74,6.79,6.79,0,0,1,2.37-2.45A10.73,10.73,0,0,1,78.83,177a19.28,19.28,0,0,1,4-.41,22.68,22.68,0,0,1,2.47.12A12,12,0,0,1,87,177v-.67a4,4,0,0,0-1.1-2.93,5.39,5.39,0,0,0-3.84-1.1,25.21,25.21,0,0,0-3.6.26,15.79,15.79,0,0,0-3.08.75l-.91-5.76c.42-.13.94-.27,1.56-.41s1.31-.27,2-.38,1.51-.21,2.33-.29S82.08,166.37,82.91,166.37Zm.58,20.93c.7,0,1.37,0,2-.05A12.1,12.1,0,0,0,87,187.1v-5.42c-.29-.06-.72-.13-1.3-.19a13,13,0,0,0-1.58-.1,14.08,14.08,0,0,0-1.89.12,4.82,4.82,0,0,0-1.57.46,2.67,2.67,0,0,0-1,.91,2.49,2.49,0,0,0-.38,1.44,2.45,2.45,0,0,0,1.12,2.33A6.27,6.27,0,0,0,83.49,187.3Z"/><path class="cls-1" d="M115.6,173.38c-.64-.16-1.39-.33-2.26-.51a14.35,14.35,0,0,0-2.78-.26,13,13,0,0,0-1.61.12,10.43,10.43,0,0,0-1.41.26v19.3h-7.16V168.38a45.42,45.42,0,0,1,4.54-1.27,26.12,26.12,0,0,1,5.83-.6c.39,0,.85,0,1.4.07s1.08.12,1.63.2,1.08.17,1.63.28a8.34,8.34,0,0,1,1.39.41Z"/><path class="cls-1" d="M131.58,155a15.76,15.76,0,0,1,3.7.41,17.26,17.26,0,0,1,2.59.79L136.48,162a9.63,9.63,0,0,0-2.09-.65,11.46,11.46,0,0,0-2.09-.21,5.81,5.81,0,0,0-2.18.36,3.38,3.38,0,0,0-1.39,1,3.7,3.7,0,0,0-.72,1.49,7.43,7.43,0,0,0-.22,1.87V167h8.83v6h-8.83v19.3h-7.15V165.7a10.77,10.77,0,0,1,2.76-7.78Q126.16,155,131.58,155Z"/><path class="cls-1" d="M152.9,192.29V159h22.27v6.29H160.38v7h13.16v6.29H160.38v13.73Z"/><path class="cls-1" d="M203.1,179.62a16.25,16.25,0,0,1-.86,5.44,11.9,11.9,0,0,1-2.5,4.23,11.12,11.12,0,0,1-3.91,2.71,13,13,0,0,1-5.11,1,12.89,12.89,0,0,1-5.06-1,11.25,11.25,0,0,1-3.92-2.71,12.6,12.6,0,0,1-2.54-4.23,15.53,15.53,0,0,1-.91-5.44,15.17,15.17,0,0,1,.93-5.43,12.29,12.29,0,0,1,2.6-4.17,11.47,11.47,0,0,1,3.93-2.69,12.69,12.69,0,0,1,5-1,12.83,12.83,0,0,1,5,1,11.3,11.3,0,0,1,3.91,2.69,12.32,12.32,0,0,1,2.54,4.17A15.39,15.39,0,0,1,203.1,179.62Zm-7.29,0a9,9,0,0,0-1.32-5.21,4.31,4.31,0,0,0-3.77-1.9,4.36,4.36,0,0,0-3.79,1.9,8.83,8.83,0,0,0-1.35,5.21,9.05,9.05,0,0,0,1.35,5.25,4.33,4.33,0,0,0,3.79,1.95,4.29,4.29,0,0,0,3.77-1.95A9.21,9.21,0,0,0,195.81,179.62Z"/><path class="cls-1" d="M223.84,173.38c-.64-.16-1.39-.33-2.26-.51a14.35,14.35,0,0,0-2.78-.26,12.87,12.87,0,0,0-1.61.12,10.43,10.43,0,0,0-1.41.26v19.3h-7.16V168.38a44.67,44.67,0,0,1,4.54-1.27,26.12,26.12,0,0,1,5.83-.6c.39,0,.85,0,1.39.07s1.09.12,1.64.2,1.08.17,1.63.28a8.34,8.34,0,0,1,1.39.41Z"/><path class="cls-1" d="M242.75,178.9a9.88,9.88,0,0,0-.89-4.9,3.28,3.28,0,0,0-3.05-1.44,13.47,13.47,0,0,0-1.39.07l-1.39.17v19.49h-7.15V167.9c.61-.16,1.32-.32,2.14-.5s1.67-.34,2.59-.48,1.85-.26,2.81-.34,1.9-.12,2.83-.12a12,12,0,0,1,4.44.7,10.08,10.08,0,0,1,2.81,1.66,11.92,11.92,0,0,1,3.52-1.73,12.25,12.25,0,0,1,3.67-.63,12.59,12.59,0,0,1,5,.84,7.53,7.53,0,0,1,3.1,2.38,8.83,8.83,0,0,1,1.58,3.65,23.36,23.36,0,0,1,.43,4.7v14.26h-7.15V178.9a9.77,9.77,0,0,0-.89-4.9,3.28,3.28,0,0,0-3-1.44,6.54,6.54,0,0,0-1.61.29,6,6,0,0,0-1.7.72,11.45,11.45,0,0,1,.43,2.33q.09,1.22.09,2.61v13.78h-7.15Z"/><path class="cls-1" d="M277.5,187.15a7.34,7.34,0,0,0,2.79-.38,1.49,1.49,0,0,0,.81-1.49,1.81,1.81,0,0,0-1.05-1.51,21.07,21.07,0,0,0-3.22-1.47,30.78,30.78,0,0,1-3.05-1.29,9.1,9.1,0,0,1-2.32-1.61,6.34,6.34,0,0,1-1.49-2.23,8.15,8.15,0,0,1-.53-3.12,6.76,6.76,0,0,1,2.64-5.62,11.53,11.53,0,0,1,7.25-2.06,22.6,22.6,0,0,1,4.41.41,20.34,20.34,0,0,1,3.36.88l-1.25,5.57a26.79,26.79,0,0,0-2.71-.77,15,15,0,0,0-3.29-.33c-2.24,0-3.35.62-3.35,1.87a1.89,1.89,0,0,0,.14.77,1.63,1.63,0,0,0,.58.65,8.6,8.6,0,0,0,1.17.67c.5.24,1.13.51,1.9.8a29.21,29.21,0,0,1,3.89,1.72,9.07,9.07,0,0,1,2.42,1.83,5.64,5.64,0,0,1,1.25,2.18,9.59,9.59,0,0,1,.36,2.77A6.4,6.4,0,0,1,285.4,191q-2.81,1.92-7.94,1.92a22.6,22.6,0,0,1-5.6-.58,21.5,21.5,0,0,1-3.09-1l1.2-5.8a23,23,0,0,0,3.74,1.12A17.72,17.72,0,0,0,277.5,187.15Z"/></svg>